<?xml version="1.0" encoding="UTF-8"?>
<svg id="Layer_1" xmlns="http://www.w3.org/2000/svg" version="1.1" viewBox="0 0 300 300">
  <!-- Generator: Adobe Illustrator 29.0.0, SVG Export Plug-In . SVG Version: 2.1.0 Build 186)  -->
  <defs>
    <style>
      .st0 {
        stroke-linecap: round;
        stroke-width: 2px;
      }

      .st0, .st1, .st2 {
        stroke: #c41e1e;
        stroke-miterlimit: 10;
      }

      .st0, .st2 {
        fill: none;
      }

      .st3 {
        opacity: .25;
      }

      .st3, .st4 {
        fill: #c61e1e;
      }

      .st1, .st5 {
        fill: #fff;
      }
    </style>
  </defs>
  <ellipse class="st3" cx="151.89" cy="157.41" rx="87.58" ry="88.07"/>
  <path class="st5" d="M89.2,120.27s1.44-11.32,6.74-11.8h-8.43v13l1.69-1.2Z"/>
  <path class="st5" d="M145.31,223.81s-8.91-74.17,7.22-114.38l-21.19-.96,8.19,11.08.24,94.15-8.43,10.35,13.97-.24Z"/>
  <path class="st0" d="M103.45,79.29c13.54-8.22,29.44-12.96,46.44-12.96,49.47,0,89.58,40.11,89.58,89.58s-40.11,89.58-89.58,89.58-89.58-40.11-89.58-89.58c0-22.82,8.54-43.65,22.59-59.47"/>
  <path class="st4" d="M213.22,107.72l2.77,30.13c.08.82-.57,1.53-1.39,1.53h-.59c-.6,0-1.13-.39-1.32-.96-1.92-5.67-4.47-10.61-7.65-14.8-3.35-4.43-7.26-7.83-11.72-10.22s-9.13-3.59-14.02-3.59c-3.84,0-7.18.72-10.01,2.17s-4.93,3.44-6.3,5.98c-1.3,2.42-1.95,6.31-1.95,11.68v70.64c0,5.25.39,9.1,1.17,11.55.78,2.45,2.28,4.59,4.49,6.42,3.76,3.07,9.15,5.11,16.18,6.12.69.1,1.21.68,1.21,1.38v.13c0,.77-.63,1.4-1.4,1.4h-66.08c-.77,0-1.4-.63-1.4-1.4v-.13c0-.7.52-1.28,1.21-1.38,7.85-1.14,13.63-3.5,17.35-7.1,1.76-1.71,2.96-3.81,3.61-6.29s.98-6.05.98-10.71v-70.64c0-5.84-.88-10.09-2.64-12.75-1.37-2.18-3.42-3.91-6.15-5.18s-5.89-1.9-9.48-1.9c-7.36,0-14.08,2.64-20.17,7.92s-10.31,12-13.31,20.69c-.19.56-.72.95-1.32.95h-.5c-.82,0-1.47-.71-1.39-1.53l2.77-30.13c.07-.72.67-1.27,1.39-1.27h124.25c.72,0,1.33.55,1.39,1.27ZM89.39,110.98l-.73,6.97c-.14,1.38,1.58,2.09,2.47,1.03,1.55-1.85,2.94-3.31,4.16-4.38.89-.78,1.91-1.55,3.05-2.29s.65-2.58-.75-2.58h-6.81c-.72,0-1.32.54-1.39,1.25ZM137.57,222.77h19.37c1.38,0,1.93-1.79.78-2.56h-.01c-2.34-1.6-3.81-2.81-4.4-3.64s-.88-2.12-.88-3.89v-2.92c0-.4-.01-.69-.04-.88s-.06-.46-.06-.65v-82.71c0-.17.04-.49.06-.65.02-.19.04-.48.04-.88v-2.92c0-1.77.36-3.14,1.07-4.12s2.12-2.11,4.2-3.41l1.73-1.16c1.15-.77.61-2.56-.78-2.56h-21.53c-1.32,0-1.9,1.66-.88,2.49l1.52,1.23c1.63,1.3,2.74,2.49,3.32,3.59s.88,2.4.88,3.94v2.92c.07.53.1,1.03.1,1.5v82.77c0,.47-.03.97-.1,1.5v2.92c0,1.77-.31,3.1-.93,3.98s-2.04,2.07-4.25,3.54h0c-1.16.76-.62,2.57.77,2.57ZM204.48,109.73h-6.55c-1.44,0-1.94,1.92-.68,2.61,1.07.59,2.05,1.21,2.95,1.86,1.36.98,2.76,2.21,4.19,3.69.95.98,2.6.16,2.39-1.18l-.91-5.8c-.11-.68-.69-1.18-1.38-1.18Z"/>
  <circle class="st5" cx="206.75" cy="109.92" r="22.92"/>
  <circle class="st5" cx="206.75" cy="109.92" r="22.92"/>
  <path class="st0" d="M229.67,109.92c0,12.66-10.26,22.92-22.92,22.92s-22.92-10.26-22.92-22.92,10.26-22.92,22.92-22.92c3.06,0,5.98.6,8.65,1.69"/>
  <path class="st4" d="M217.52,120.32h0c-.57.57-1.5.57-2.07,0l-7.32-7.32c-.57-.57-1.5-.57-2.07,0l-7.32,7.32c-.57.57-1.5.57-2.07,0h0c-.57-.57-.57-1.5,0-2.07l7.32-7.32c.57-.57.57-1.5,0-2.07l-7.32-7.32c-.57-.57-.57-1.5,0-2.07h0c.57-.57,1.5-.57,2.07,0l7.32,7.32c.57.57,1.5.57,2.07,0l7.32-7.32c.57-.57,1.5-.57,2.07,0h0c.57.57.57,1.5,0,2.07l-7.32,7.32c-.57.57-.57,1.5,0,2.07l7.32,7.32c.57.57.57,1.5,0,2.07Z"/>
  <polygon class="st4" points="194.1 196.3 193.32 197.08 189.76 193.52 186.21 197.08 185.43 196.3 188.98 192.74 185.43 189.19 186.21 188.4 189.76 191.96 193.32 188.4 194.1 189.19 190.55 192.74 194.1 196.3"/>
  <polygon class="st4" points="126.77 138.65 125.99 139.43 122.44 135.88 118.88 139.43 118.1 138.65 121.65 135.1 118.1 131.54 118.88 130.76 122.44 134.31 125.99 130.76 126.77 131.54 123.22 135.1 126.77 138.65"/>
  <polygon class="st4" points="230.32 81.82 229.53 82.6 225.98 79.05 222.43 82.6 221.64 81.82 225.2 78.27 221.64 74.71 222.43 73.93 225.98 77.49 229.53 73.93 230.32 74.71 226.76 78.27 230.32 81.82"/>
  <polygon class="st4" points="139.7 90.49 138.91 91.27 135.36 87.72 131.8 91.27 131.02 90.49 134.58 86.94 131.02 83.38 131.8 82.6 135.36 86.15 138.91 82.6 139.7 83.38 136.14 86.94 139.7 90.49"/>
  <circle class="st2" cx="71.87" cy="89.28" r="4.58"/>
  <circle class="st1" cx="75.28" cy="122.01" r="4.58"/>
  <circle class="st2" cx="172.58" cy="64.78" r="4.58"/>
  <circle class="st1" cx="181.71" cy="146.82" r="4.58"/>
  <circle class="st1" cx="101.88" cy="171.75" r="4.58"/>
</svg>